<?xml version="1.0" encoding="UTF-8" standalone="no"?><!DOCTYPE svg PUBLIC "-//W3C//DTD SVG 1.1//EN" "http://www.w3.org/Graphics/SVG/1.1/DTD/svg11.dtd"><svg width="100%" height="100%" viewBox="0 0 100 125" version="1.1" xmlns="http://www.w3.org/2000/svg" xmlns:xlink="http://www.w3.org/1999/xlink" xml:space="preserve" xmlns:serif="http://www.serif.com/" style="fill-rule:evenodd;clip-rule:evenodd;stroke-linejoin:round;stroke-miterlimit:2;"><path d="M48.264,64.005c2.272,2.273 12.004,12.004 17.879,17.879c2.428,2.428 2.428,6.364 0.001,8.792c-1.166,1.166 -2.747,1.82 -4.396,1.82c-1.648,0 -3.23,-0.655 -4.396,-1.821l-17.879,-17.88l8.791,-8.79Zm-20.549,-0.513l11.768,-11.767l8.792,8.792l-11.764,11.765c-0.956,0.96 -0.954,2.514 0.004,3.472c0.781,0.781 1.96,0.926 2.888,0.435l8.857,8.856c-5.841,5.307 -14.895,5.14 -20.536,-0.501c-1.592,-1.592 -2.748,-3.457 -3.468,-5.445c-1.907,-5.263 -0.754,-11.388 3.459,-15.607Zm56.826,-12.274c5.812,5.812 5.813,15.248 0.002,21.059c-5.639,5.639 -14.694,5.805 -20.535,0.497l8.854,-8.855c0.929,0.491 2.107,0.347 2.888,-0.434c0.959,-0.96 0.959,-2.517 0,-3.476c0,0 -9.424,-9.424 -11.745,-11.745l8.79,-8.791l11.746,11.745Zm-20.499,0.484l8.793,8.793l-12.291,12.291l-8.792,-8.793l12.29,-12.291Zm-49.1,0.026l8.793,8.792l-5.622,5.622c-1.166,1.166 -2.747,1.821 -4.395,1.821c-1.649,-0.001 -3.23,-0.656 -4.396,-1.822c-1.166,-1.166 -1.822,-2.747 -1.822,-4.396c-0,-1.648 0.655,-3.229 1.821,-4.395l5.621,-5.622Zm33.319,-12.258c-0,0 9.817,9.818 12.269,12.269l-8.791,8.791l-12.269,-12.269l8.791,-8.791Zm-32.802,9.312c-5.812,-5.812 -5.813,-15.248 -0.002,-21.059c5.639,-5.639 14.694,-5.805 20.535,-0.497l-8.854,8.855c-0.929,-0.491 -2.107,-0.347 -2.888,0.434c-0.959,0.96 -0.959,2.517 -0,3.476c-0,0 9.424,9.424 11.745,11.745l-8.79,8.791l-11.746,-11.745Zm60.806,-9.302l5.622,-5.622c1.166,-1.166 2.747,-1.821 4.395,-1.821c1.649,0.001 3.23,0.656 4.396,1.822c1.166,1.166 1.822,2.747 1.822,4.396c-0,1.648 -0.655,3.229 -1.821,4.395l-5.621,5.622l-8.793,-8.792Zm-3.987,-2.965c-0,0 -9.428,9.427 -11.749,11.748l-8.792,-8.792c-0,0 2.191,-2.192 4.657,-4.657c3.169,-3.169 7.091,-7.092 7.091,-7.092c0.959,-0.959 0.959,-2.516 -0,-3.476c-0.781,-0.781 -1.96,-0.926 -2.888,-0.435l-8.857,-8.856c5.841,-5.307 14.895,-5.14 20.536,0.501c5.812,5.812 5.813,15.248 0.002,21.059Zm-24.03,-0.508l-12.241,12.241l-8.793,-8.792l12.242,-12.242l8.792,8.793Zm3.488,-0.012c-2.272,-2.273 -12.004,-12.004 -17.879,-17.879c-2.428,-2.428 -2.428,-6.364 -0.001,-8.792c1.166,-1.166 2.747,-1.82 4.396,-1.82c1.648,0 3.23,0.655 4.396,1.821l17.879,17.88l-8.791,8.79Z"/></svg>